<!DOCTYPE svg PUBLIC "-//W3C//DTD SVG 1.1//EN" "http://www.w3.org/Graphics/SVG/1.1/DTD/svg11.dtd">
<!-- Uploaded to: SVG Repo, www.svgrepo.com, Transformed by: SVG Repo Mixer Tools -->
<svg fill="#FFFF" width="800px" height="800px" viewBox="0 0 24 24" id="google-square" data-name="Flat Color" xmlns="http://www.w3.org/2000/svg" class="icon flat-color" stroke="#FFFF" stroke-width="0.00024000000000000003">
<g id="SVGRepo_bgCarrier" stroke-width="0"/>
<g id="SVGRepo_tracerCarrier" stroke-linecap="round" stroke-linejoin="round" stroke="#CCCCCC" stroke-width="0.048"/>
<g id="SVGRepo_iconCarrier">
<rect id="primary" x="2" y="2" width="20" height="20" rx="2" style="fill: #FFFF;"/>
<path id="secondary" d="M12,18A6,6,0,1,1,16.24,7.75a1,1,0,0,1-1.4,1.42A4,4,0,0,0,12,8a4,4,0,0,0-4,4,4,4,0,0,0,4,4,4,4,0,0,0,3.87-3H12a1,1,0,0,1,0-2h5a1,1,0,0,1,1,1A6,6,0,0,1,12,18Z" style="fill: #2ca9bc;"/>
</g>
</svg>